<svg width="24" height="24" viewBox="0 0 24 24" fill="none" xmlns="http://www.w3.org/2000/svg">
<path d="M8.71725 5.70226L13.2638 8.32726C13.623 8.53426 14.0812 8.41126 14.2875 8.05276C14.4952 7.69426 14.3722 7.23526 14.0138 7.02901L9.46725 4.40401C9.108 4.19701 8.64975 4.32001 8.44275 4.67776C8.23575 5.03551 8.35875 5.49451 8.71725 5.70226ZM12.8895 8.97676L8.343 6.35176L5.718 10.8983L10.2645 13.5233L12.8895 8.97676ZM4.59225 12.8468L9.13875 15.4718C9.49725 15.6788 9.95625 15.5558 10.1625 15.1973C10.3688 14.8388 10.2465 14.3798 9.88875 14.1735L5.34225 11.5485C4.983 11.3415 4.52475 11.4645 4.31775 11.8223C4.11 12.1808 4.23375 12.6398 4.59225 12.8468ZM20.259 14.9633L11.952 10.6005L11.202 11.8995L19.134 16.9118C19.6717 17.2223 20.3603 17.0385 20.6707 16.5C20.9813 15.9615 20.7967 15.2738 20.259 14.9633ZM12.0248 18.75C12.0248 18.3353 11.6888 18 11.2747 18H4.52475C4.11 18 3.77475 18.3353 3.77475 18.75C3.77475 19.164 3.77475 19.5 3.77475 19.5L3 19.4843L3.02475 20.25H12.7748L12.81 19.5315L12.072 19.5C12.072 19.5 12.0248 19.164 12.0248 18.75Z" fill="white"/>
</svg>
