<svg width="34" height="34" viewBox="0 0 34 34" fill="none" xmlns="http://www.w3.org/2000/svg">
<path d="M24.3376 19.49L23.3376 17.83C23.1276 17.46 22.9376 16.76 22.9376 16.35V13.82C22.9376 11.47 21.5576 9.44 19.5676 8.49C19.0476 7.57 18.0876 7 16.9876 7C15.8976 7 14.9176 7.59 14.3976 8.52C12.4476 9.49 11.0976 11.5 11.0976 13.82V16.35C11.0976 16.76 10.9076 17.46 10.6976 17.82L9.68762 19.49C9.28762 20.16 9.19762 20.9 9.44762 21.58C9.68762 22.25 10.2576 22.77 10.9976 23.02C12.9376 23.68 14.9776 24 17.0176 24C19.0576 24 21.0976 23.68 23.0376 23.03C23.7376 22.8 24.2776 22.27 24.5376 21.58C24.7976 20.89 24.7276 20.13 24.3376 19.49Z" fill="#3D3D5D"/>
<path d="M19.8251 25.01C19.4051 26.17 18.2951 27 16.9951 27C16.2051 27 15.4251 26.68 14.875 26.11C14.555 25.81 14.315 25.41 14.175 25C14.305 25.02 14.435 25.03 14.575 25.05C14.805 25.08 15.0451 25.11 15.2851 25.13C15.8551 25.18 16.4351 25.21 17.0151 25.21C17.5851 25.21 18.1551 25.18 18.7151 25.13C18.9251 25.11 19.1351 25.1 19.3351 25.07C19.4951 25.05 19.6551 25.03 19.8251 25.01Z" fill="#3D3D5D"/>
</svg>
