<svg width="23" height="23" viewBox="0 0 23 23" fill="none" xmlns="http://www.w3.org/2000/svg">
<path fill-rule="evenodd" clip-rule="evenodd" d="M2.91327 2.1969C2.53878 2.06524 2.12847 2.26209 1.99682 2.63657C1.86515 3.01105 2.062 3.42136 2.43648 3.55302L2.68681 3.64103C3.3266 3.86597 3.74707 4.01504 4.05647 4.16685C4.34705 4.30943 4.47515 4.42484 4.55954 4.54833C4.64604 4.67492 4.71284 4.84878 4.75053 5.19699C4.78998 5.56136 4.79095 6.03594 4.79095 6.74506V9.23833H19.86C20.1767 7.64985 20.3253 6.8429 19.91 6.30303C19.4846 5.75 18.031 5.75 16.4163 5.75H6.2213C6.21489 5.49093 6.20274 5.25524 6.17968 5.0423C6.12819 4.5666 6.01663 4.13274 5.7464 3.7373C5.47406 3.33877 5.11196 3.08352 4.68969 2.87633C4.29477 2.68256 3.79295 2.50615 3.20211 2.29845L2.91327 2.1969Z" fill="#3D3D5D"/>
<path opacity="0.5" d="M19.3582 11.6796L19.8372 9.35586L19.8607 9.23823H4.79163C4.79163 12.0573 4.85223 12.9875 5.68253 13.8633C6.51283 14.7391 7.84918 14.7391 10.5219 14.7391H15.6038C17.0998 14.7391 17.8478 14.7391 18.3765 14.3082C18.9053 13.8773 19.0562 13.1447 19.3582 11.6796Z" fill="#3D3D5D"/>
<path d="M7.1875 17.25C7.98141 17.25 8.625 17.8936 8.625 18.6875C8.625 19.4814 7.98141 20.125 7.1875 20.125C6.39359 20.125 5.75 19.4814 5.75 18.6875C5.75 17.8936 6.39359 17.25 7.1875 17.25Z" fill="#3D3D5D"/>
<path d="M15.8125 17.2501C16.6064 17.2501 17.25 17.8936 17.25 18.6876C17.25 19.4815 16.6064 20.1251 15.8125 20.1251C15.0186 20.1251 14.375 19.4815 14.375 18.6876C14.375 17.8936 15.0186 17.2501 15.8125 17.2501Z" fill="#3D3D5D"/>
</svg>
