<svg width="46" height="50" viewBox="0 0 46 50" fill="none" xmlns="http://www.w3.org/2000/svg">
<path fill-rule="evenodd" clip-rule="evenodd" d="M38.9136 43.2696H6.38877C5.15647 43.2696 3.97464 42.7801 3.10327 41.9087C2.2319 41.0374 1.74237 39.8555 1.74237 38.6232V31.6536C8.32668 28.7352 15.449 27.2274 22.6512 27.2274C29.8533 27.2274 36.9757 28.7352 43.56 31.6536V38.6232C43.56 39.8555 43.0704 41.0374 42.1991 41.9087C41.3277 42.7801 40.1459 43.2696 38.9136 43.2696Z" stroke="#99536C" stroke-width="3.4848" stroke-linecap="round" stroke-linejoin="round"/>
<path d="M1.74237 31.6546V26.0325C1.74237 24.184 2.47667 22.4113 3.78372 21.1042C5.09077 19.7972 6.86352 19.0629 8.71197 19.0629C10.5604 19.0629 12.3332 19.7972 13.6402 21.1042C14.9473 22.4113 15.6816 24.184 15.6816 26.0325V27.7052" stroke="#99536C" stroke-width="3.4848" stroke-linecap="round" stroke-linejoin="round"/>
<path d="M43.5601 31.6546V26.0325C43.5601 24.184 42.8258 22.4113 41.5188 21.1042C40.2117 19.7972 38.439 19.0629 36.5905 19.0629C34.7421 19.0629 32.9693 19.7972 31.6623 21.1042C30.3552 22.4113 29.6209 24.184 29.6209 26.0325V27.7052" stroke="#99536C" stroke-width="3.4848" stroke-linecap="round" stroke-linejoin="round"/>
<path d="M6.38867 19.4571V6.09871C11.2705 3.28066 16.8009 1.77971 22.4376 1.74306C28.0743 1.7064 33.6237 3.1353 38.5418 5.88962L38.9135 6.09871V19.3874" stroke="#99536C" stroke-width="3.4848" stroke-linecap="round" stroke-linejoin="round"/>
<path d="M8.7121 43.2693V47.9157" stroke="#99536C" stroke-width="3.4848" stroke-linecap="round" stroke-linejoin="round"/>
<path d="M36.5904 43.2693V47.9157" stroke="#99536C" stroke-width="3.4848" stroke-linecap="round" stroke-linejoin="round"/>
</svg>
