<svg width="53" height="41" viewBox="0 0 53 41" fill="none" xmlns="http://www.w3.org/2000/svg">
<path d="M49.6584 14.8104H44.4312V2.6136C44.4304 1.92068 44.1548 1.25637 43.6648 0.766397C43.1748 0.276427 42.5105 0.000806998 41.8176 0H2.6136C1.92068 0.000806998 1.25637 0.276427 0.766397 0.766397C0.276427 1.25637 0.000806998 1.92068 0 2.6136V29.403C0.000806998 30.0959 0.276427 30.7602 0.766397 31.2502C1.25637 31.7402 1.92068 32.0158 2.6136 32.0166H21.3444V37.4616H14.8104V40.9464H31.3632V37.4616H24.8292V32.0166H34.848V38.3328C34.8488 39.0257 35.1244 39.6901 35.6144 40.18C36.1043 40.67 36.7687 40.9456 37.4616 40.9464H49.6584C50.3513 40.9456 51.0157 40.67 51.5056 40.18C51.9956 39.6901 52.2712 39.0257 52.272 38.3328V17.424C52.2712 16.7311 51.9956 16.0667 51.5056 15.5768C51.0157 15.0868 50.3513 14.8112 49.6584 14.8104ZM34.848 17.424V28.5318H3.4848V3.4848H40.9464V14.8104H37.4616C36.7687 14.8112 36.1043 15.0868 35.6144 15.5768C35.1244 16.0667 34.8488 16.7311 34.848 17.424ZM48.7872 37.4616H38.3328V18.2952H48.7872V37.4616Z" fill="#AC7B49"/>
</svg>
