<svg width="56" height="56" viewBox="0 0 56 56" fill="none" xmlns="http://www.w3.org/2000/svg">
<g clip-path="url(#clip0_1_136)">
<path d="M28.3082 20.3134C28.0157 20.3126 27.7303 20.2232 27.4896 20.057L12.8784 10.0274C12.5795 9.82117 12.3687 9.51046 12.2876 9.1565C12.2064 8.80254 12.2608 8.43103 12.44 8.11518L16.6636 0.725825C16.7908 0.504558 16.974 0.320679 17.1948 0.192727C17.4156 0.0647755 17.6662 -0.00275542 17.9214 -0.00305143H37.955C38.1956 -0.00321434 38.4325 0.0566535 38.6442 0.171084C38.8559 0.285515 39.0358 0.450921 39.1675 0.652342L43.2689 6.93003C43.464 7.23047 43.5412 7.5924 43.4857 7.94632C43.4302 8.30023 43.2458 8.62119 42.9681 8.84745L29.2199 19.9904C28.962 20.1995 28.6401 20.3136 28.3082 20.3134ZM15.6177 8.39712L28.2372 17.0596L40.1313 7.42219L37.1715 2.89357H18.763L15.6177 8.39712Z" fill="#813C86"/>
<path d="M35.9921 12.6393L33.3288 14.7951C37.8144 16.1073 41.6765 18.9925 44.207 22.9217C46.7375 26.8509 47.7666 31.5606 47.1057 36.1872C46.4447 40.8138 44.138 45.047 40.6086 48.1105C37.0791 51.1739 32.5635 52.8623 27.89 52.866C23.2165 52.8696 18.6983 51.1883 15.164 48.1304C11.6298 45.0724 9.31647 40.8428 8.6483 36.2173C7.98012 31.5917 9.00189 26.8804 11.5262 22.9472C14.0506 19.0141 17.9082 16.1228 22.3917 14.8037L19.4302 12.7709C14.6259 14.734 10.6556 18.3094 8.20176 22.8826C5.74793 27.4557 4.96388 32.7408 5.98441 37.8294C7.00493 42.9179 9.76628 47.492 13.7937 50.7653C17.8212 54.0386 22.8632 55.8066 28.0529 55.7653C33.2426 55.7241 38.2558 53.8762 42.2308 50.5393C46.2057 47.2025 48.894 42.5851 49.8336 37.481C50.7731 32.3769 49.9052 27.1049 47.379 22.5713C44.8528 18.0378 40.827 14.5259 35.9921 12.6393Z" fill="#813C86"/>
<path d="M31.7269 16.0957L29.4754 17.92C33.5014 18.3033 37.2233 20.2281 39.863 23.292C42.5028 26.3559 43.8558 30.3217 43.6393 34.3601C43.4228 38.3985 41.6535 42.1968 38.7013 44.9609C35.7491 47.7251 31.8427 49.2409 27.7988 49.1915C23.7549 49.1421 19.8866 47.5313 17.0029 44.696C14.1191 41.8606 12.443 38.0202 12.3252 33.9777C12.2074 29.9352 13.6569 26.0037 16.3706 23.0051C19.0843 20.0066 22.8522 18.1732 26.8864 17.8884L24.2085 16.0496C19.9212 16.9511 16.1186 19.4061 13.5323 22.9422C10.9459 26.4784 9.75843 30.846 10.1982 35.205C10.6381 39.5639 12.6741 43.6063 15.9147 46.5545C19.1554 49.5027 23.3717 51.1486 27.7527 51.1755C32.1337 51.2024 36.3699 49.6083 39.6465 46.7001C42.923 43.7919 45.0085 39.7748 45.5018 35.4216C45.9951 31.0684 44.8613 26.6865 42.3185 23.1189C39.7758 19.5512 36.0028 17.0498 31.7269 16.0957Z" fill="#813C86"/>
<path d="M35.8838 9.17089H19.7132C19.4571 9.17089 19.2116 9.06914 19.0305 8.88807C18.8494 8.707 18.7477 8.46143 18.7477 8.20535C18.7477 7.94927 18.8494 7.7037 19.0305 7.52263C19.2116 7.34155 19.4571 7.23981 19.7132 7.23981H35.8838C36.1399 7.23981 36.3855 7.34155 36.5666 7.52263C36.7476 7.7037 36.8494 7.94927 36.8494 8.20535C36.8494 8.46143 36.7476 8.707 36.5666 8.88807C36.3855 9.06914 36.1399 9.17089 35.8838 9.17089Z" fill="#813C86"/>
</g>
<defs>
<clipPath id="clip0_1_136">
<rect width="55.7568" height="55.7568" fill="white"/>
</clipPath>
</defs>
</svg>
