<svg width="22" height="20" viewBox="0 0 22 20" fill="none" xmlns="http://www.w3.org/2000/svg">
<path d="M6.8607 1.67855L12.3165 4.82855C12.7476 5.07695 13.2975 4.92935 13.545 4.49915C13.7943 4.06895 13.6467 3.51815 13.2165 3.27065L7.7607 0.120651C7.3296 -0.127749 6.7797 0.0198508 6.5313 0.449151C6.2829 0.878451 6.4305 1.42925 6.8607 1.67855ZM11.8674 5.60795L6.4116 2.45795L3.2616 7.91375L8.7174 11.0638L11.8674 5.60795ZM1.9107 10.252L7.3665 13.402C7.7967 13.6504 8.3475 13.5028 8.595 13.0726C8.8425 12.6424 8.6958 12.0916 8.2665 11.8441L2.8107 8.69405C2.3796 8.44565 1.8297 8.59325 1.5813 9.02255C1.332 9.45275 1.4805 10.0036 1.9107 10.252ZM20.7108 12.7918L10.7424 7.55645L9.8424 9.11525L19.3608 15.13C20.0061 15.5026 20.8323 15.2821 21.2049 14.6359C21.5775 13.9897 21.3561 13.1644 20.7108 12.7918ZM10.8297 17.3359C10.8297 16.8382 10.4265 16.4359 9.9297 16.4359H1.8297C1.332 16.4359 0.9297 16.8382 0.9297 17.3359C0.9297 17.8327 0.9297 18.2359 0.9297 18.2359L0 18.217L0.0297 19.1359H11.7297L11.772 18.2737L10.8864 18.2359C10.8864 18.2359 10.8297 17.8327 10.8297 17.3359Z" fill="#999999"/>
</svg>
