<svg width="19" height="19" viewBox="0 0 19 19" fill="none" xmlns="http://www.w3.org/2000/svg">
<g clip-path="url(#clip0_4_488)">
<path d="M9.11982 -0.00012207C5.34254 -0.00012207 2.28003 3.06239 2.28003 6.83967C2.28003 8.32704 2.76765 9.69186 3.57816 10.8096C3.5927 10.8364 3.59498 10.8663 3.61151 10.892L8.17137 17.7317C8.38283 18.0489 8.73907 18.2393 9.11982 18.2393C9.50057 18.2393 9.85681 18.0489 10.0683 17.7317L14.6281 10.892C14.6449 10.8663 14.6469 10.8364 14.6615 10.8096C15.472 9.69186 15.9596 8.32704 15.9596 6.83967C15.9596 3.06239 12.8971 -0.00012207 9.11982 -0.00012207ZM9.11982 9.1196C7.86073 9.1196 6.83989 8.09876 6.83989 6.83967C6.83989 5.58058 7.86073 4.55974 9.11982 4.55974C10.3789 4.55974 11.3997 5.58058 11.3997 6.83967C11.3997 8.09876 10.3789 9.1196 9.11982 9.1196Z" fill="#25A5B4"/>
</g>
<defs>
<clipPath id="clip0_4_488">
<rect width="18.2394" height="18.2394" fill="white"/>
</clipPath>
</defs>
</svg>
