<svg width="32" height="46" viewBox="0 0 32 46" fill="none" xmlns="http://www.w3.org/2000/svg">
<path d="M13.5326 36.7646H18.179M9.35088 43.7342H22.3608C24.963 43.7342 26.2642 43.7342 27.2581 43.2278C28.1323 42.7824 28.8432 42.0715 29.2886 41.1973C29.795 40.2034 29.795 38.9022 29.795 36.3V9.35086C29.795 6.74865 29.795 5.44752 29.2886 4.45361C28.8432 3.57932 28.1323 2.86851 27.2581 2.42306C26.2642 1.91663 24.963 1.91663 22.3608 1.91663H9.35088C6.74866 1.91663 5.44753 1.91663 4.45362 2.42306C3.57933 2.86851 2.86853 3.57932 2.42308 4.45361C1.91664 5.44752 1.91664 6.74863 1.91664 9.35086V36.3C1.91664 38.9022 1.91664 40.2034 2.42308 41.1973C2.86853 42.0715 3.57933 42.7824 4.45362 43.2278C5.44753 43.7342 6.74864 43.7342 9.35088 43.7342Z" stroke="#55A482" stroke-width="3.83328" stroke-linecap="round" stroke-linejoin="round"/>
</svg>
