<svg width="24" height="24" viewBox="0 0 24 24" fill="none" xmlns="http://www.w3.org/2000/svg">
<path d="M5.70002 4.79999C4.82481 4.79999 3.98544 5.14767 3.36657 5.76654C2.7477 6.38541 2.40002 7.22477 2.40002 8.09999V9.59999H21.6V8.09999C21.6 7.22477 21.2523 6.38541 20.6335 5.76654C20.0146 5.14767 19.1752 4.79999 18.3 4.79999H5.70002ZM21.6 10.8H2.40002V15.9C2.40002 16.7752 2.7477 17.6146 3.36657 18.2334C3.98544 18.8523 4.82481 19.2 5.70002 19.2H18.3C19.1752 19.2 20.0146 18.8523 20.6335 18.2334C21.2523 17.6146 21.6 16.7752 21.6 15.9V10.8ZM16.2 15.6H18.6C18.7592 15.6 18.9118 15.6632 19.0243 15.7757C19.1368 15.8882 19.2 16.0409 19.2 16.2C19.2 16.3591 19.1368 16.5117 19.0243 16.6243C18.9118 16.7368 18.7592 16.8 18.6 16.8H16.2C16.0409 16.8 15.8883 16.7368 15.7758 16.6243C15.6632 16.5117 15.6 16.3591 15.6 16.2C15.6 16.0409 15.6632 15.8882 15.7758 15.7757C15.8883 15.6632 16.0409 15.6 16.2 15.6Z" fill="#878C90"/>
</svg>
