<svg width="29" height="29" viewBox="0 0 29 29" fill="none" xmlns="http://www.w3.org/2000/svg">
<path d="M22.6386 4.79964H16.7571C16.6281 4.79889 16.5002 4.82362 16.3807 4.87239C16.2613 4.92116 16.1527 4.99303 16.0611 5.08386L5.97417 15.1396C5.79188 15.3216 5.64728 15.5378 5.54861 15.7758C5.44995 16.0138 5.39917 16.2688 5.39917 16.5264C5.39917 16.784 5.44995 17.0391 5.54861 17.2771C5.64728 17.515 5.79188 17.7312 5.97417 17.9133L11.4832 23.4214C11.8492 23.7895 12.3463 23.9974 12.8654 23.9996C13.1241 23.9998 13.3803 23.9488 13.6192 23.8496C13.8581 23.7503 14.075 23.6048 14.2574 23.4214L24.3149 13.3264C24.496 13.1439 24.5981 12.8975 24.5992 12.6404V6.75982C24.5992 6.23995 24.3926 5.74137 24.0249 5.37376C23.6573 5.00616 23.1586 4.79964 22.6386 4.79964Z" fill="#25A5B4"/>
<path d="M20.3991 10.7996C21.3932 10.7996 22.1991 9.99373 22.1991 8.99962C22.1991 8.0055 21.3932 7.19962 20.3991 7.19962C19.405 7.19962 18.5991 8.0055 18.5991 8.99962C18.5991 9.99373 19.405 10.7996 20.3991 10.7996Z" fill="white"/>
</svg>
