<svg width="55" height="56" viewBox="0 0 55 56" fill="none" xmlns="http://www.w3.org/2000/svg">
<path d="M52.7266 52.1205H47.2721V3.63628H49.0903C50.094 3.63628 50.9085 2.82247 50.9085 1.81809C50.9084 0.81381 50.094 0 49.0903 0C34.5047 0 19.9422 0 5.45447 0C4.45074 0 3.63628 0.81381 3.63628 1.81819C3.63628 2.82258 4.45074 3.63639 5.45447 3.63639H7.27267V52.1205H1.81819C0.814463 52.1205 0 52.9343 0 53.9387C0 54.9431 0.814463 55.7569 1.81819 55.7569C18.8558 55.7569 35.7823 55.7569 52.7266 55.7569C53.7303 55.7569 54.5447 54.9431 54.5447 53.9387C54.5447 52.9343 53.7303 52.1205 52.7266 52.1205ZM25.4542 46.666C25.4542 47.6704 24.6397 48.4842 23.636 48.4842H16.3633C15.3596 48.4842 14.5451 47.6704 14.5451 46.666V39.3934C14.5451 38.389 15.3596 37.5752 16.3633 37.5752H23.636C24.6397 37.5752 25.4542 38.389 25.4542 39.3934V46.666ZM25.4542 32.1208C25.4542 33.1252 24.6397 33.939 23.636 33.939H16.3633C15.3596 33.939 14.5451 33.1252 14.5451 32.1208V24.8481C14.5451 23.8438 15.3596 23.03 16.3633 23.03H23.636C24.6397 23.03 25.4542 23.8438 25.4542 24.8481V32.1208ZM25.4542 17.5755C25.4542 18.5799 24.6397 19.3937 23.636 19.3937H16.3633C15.3596 19.3937 14.5451 18.5799 14.5451 17.5755V10.3029C14.5451 9.29854 15.3596 8.48473 16.3633 8.48473H23.636C24.6397 8.48473 25.4542 9.29854 25.4542 10.3029V17.5755ZM39.9995 46.666C39.9995 47.6704 39.1851 48.4842 38.1813 48.4842H30.9087C29.9049 48.4842 29.0905 47.6704 29.0905 46.666V39.3934C29.0905 38.389 29.9049 37.5752 30.9087 37.5752H38.1813C39.1851 37.5752 39.9995 38.389 39.9995 39.3934V46.666ZM39.9995 32.1208C39.9995 33.1252 39.1851 33.939 38.1813 33.939H30.9087C29.9049 33.939 29.0905 33.1252 29.0905 32.1208V24.8481C29.0905 23.8438 29.9049 23.03 30.9087 23.03H38.1813C39.1851 23.03 39.9995 23.8438 39.9995 24.8481V32.1208ZM39.9995 17.5755C39.9995 18.5799 39.1851 19.3937 38.1813 19.3937H30.9087C29.9049 19.3937 29.0905 18.5799 29.0905 17.5755V10.3029C29.0905 9.29854 29.9049 8.48473 30.9087 8.48473H38.1813C39.1851 8.48473 39.9995 9.29854 39.9995 10.3029V17.5755Z" fill="#779A53"/>
</svg>
