<svg width="24" height="24" viewBox="0 0 24 24" fill="none" xmlns="http://www.w3.org/2000/svg">
<g clip-path="url(#clip0_4_82)">
<path d="M23.5515 8.90144C23.3753 8.37681 22.9212 7.99431 22.3744 7.91069L16.011 6.93831L13.1528 0.849436C12.909 0.330436 12.3881 6.10352e-05 11.8159 6.10352e-05C11.2433 6.10352e-05 10.7228 0.330436 10.479 0.849436L7.6204 6.93869L1.25702 7.91106C0.71027 7.99469 0.256145 8.37681 0.0802702 8.90181C-0.0956048 9.42681 0.0371452 10.0051 0.42377 10.4018L5.07077 15.1669L3.97015 21.9083C3.8794 22.4663 4.11602 23.0273 4.57765 23.3536C5.0389 23.6798 5.6479 23.7128 6.14402 23.4391L11.8163 20.3022L17.4885 23.4391C17.7124 23.5628 17.9588 23.6236 18.204 23.6236C18.5025 23.6236 18.801 23.5328 19.0549 23.3536C19.5165 23.0277 19.7528 22.4667 19.662 21.9083L18.5614 15.1669L23.2088 10.4018C23.5946 10.0051 23.7274 9.42681 23.5515 8.90144Z" fill="#878C90"/>
</g>
<defs>
<clipPath id="clip0_4_82">
<rect width="24" height="24" fill="white"/>
</clipPath>
</defs>
</svg>
